<svg width="25" height="25" viewBox="0 0 25 25" fill="none" xmlns="http://www.w3.org/2000/svg">
<path d="M12.3999 12.5801H12.4099M12.3999 6.58008H12.4099M12.3999 18.5801H12.4099M13.3999 12.5801C13.3999 13.1324 12.9522 13.5801 12.3999 13.5801C11.8476 13.5801 11.3999 13.1324 11.3999 12.5801C11.3999 12.0278 11.8476 11.5801 12.3999 11.5801C12.9522 11.5801 13.3999 12.0278 13.3999 12.5801ZM13.3999 18.5801C13.3999 19.1324 12.9522 19.5801 12.3999 19.5801C11.8476 19.5801 11.3999 19.1324 11.3999 18.5801C11.3999 18.0278 11.8476 17.5801 12.3999 17.5801C12.9522 17.5801 13.3999 18.0278 13.3999 18.5801ZM13.3999 6.58008C13.3999 7.13236 12.9522 7.58008 12.3999 7.58008C11.8476 7.58008 11.3999 7.13236 11.3999 6.58008C11.3999 6.02779 11.8476 5.58008 12.3999 5.58008C12.9522 5.58008 13.3999 6.02779 13.3999 6.58008Z" stroke="#131A29" stroke-width="2" stroke-linecap="round" stroke-linejoin="round"/>
</svg>
