<svg width="51" height="50" viewBox="0 0 51 50" fill="none" xmlns="http://www.w3.org/2000/svg">
<path d="M16 8C16 4.95 13.55 2.5 10.5 2.5C7.45 2.5 5 4.95 5 8C5 11.05 7.45 13.5 10.5 13.5C13.55 13.5 16 11.05 16 8ZM10.5 11.5C8.55 11.5 7 9.95 7 8C7 6.05 8.55 4.5 10.5 4.5C12.45 4.5 14 6.05 14 8C14 9.95 12.45 11.5 10.5 11.5ZM17.5 27V20.5C17.5 16.65 14.35 13.5 10.5 13.5C6.65 13.5 3.5 16.65 3.5 20.5V27C3.5 27.55 3.95 28 4.5 28H16.5C17.05 28 17.5 27.55 17.5 27ZM15.5 26H5.5V20.5C5.5 18.1 7.2 16.05 9.5 15.6V18.5C9.5 19.05 9.95 19.5 10.5 19.5C11.05 19.5 11.5 19.05 11.5 18.5V15.6C13.8 16.05 15.5 18.1 15.5 20.5V26ZM46 27.5C46 24.45 43.55 22 40.5 22C37.45 22 35 24.45 35 27.5C35 30.55 37.45 33 40.5 33C43.55 33 46 30.55 46 27.5ZM40.5 31C38.55 31 37 29.45 37 27.5C37 25.55 38.55 24 40.5 24C42.45 24 44 25.55 44 27.5C44 29.45 42.45 31 40.5 31ZM40.5 33C36.65 33 33.5 36.15 33.5 40V46.5C33.5 47.05 33.95 47.5 34.5 47.5H46.5C47.05 47.5 47.5 47.05 47.5 46.5V40C47.5 36.15 44.35 33 40.5 33ZM45.5 45.5H35.5V40C35.5 37.6 37.2 35.55 39.5 35.1V38C39.5 38.55 39.95 39 40.5 39C41.05 39 41.5 38.55 41.5 38V35.1C43.8 35.55 45.5 37.6 45.5 40V45.5ZM30.05 38.2L22.05 32.7C21.75 32.5 21.35 32.45 21 32.65C20.65 32.8 20.45 33.15 20.45 33.55V36.05H11C8.95 36.05 7.25 34.5 7 32.45V32.05C7 31.5 6.55 31.05 6 31.05C5.45 31.05 5 31.5 5 32.05C5 32.25 5 32.4 5.05 32.6V32.65C5.35 37.9 9.75 42 15 42H20.5V44.5C20.5 44.85 20.7 45.2 21.05 45.4C21.2 45.5 21.35 45.5 21.5 45.5C21.7 45.5 21.9 45.45 22.05 45.3L30.05 39.8C30.3 39.6 30.5 39.3 30.5 39C30.5 38.7 30.35 38.35 30.05 38.2ZM22.5 42.6V41C22.5 40.45 22.05 40 21.5 40H15C12.9 40 10.95 39.15 9.5 37.8C10 37.95 10.5 38 11 38H21.5C22.05 38 22.5 37.55 22.5 37V35.4L27.75 39L22.5 42.6ZM44 17.6V18C44 18.55 44.45 19 45 19C45.55 19 46 18.55 46 18C46 17.8 46 17.65 45.95 17.45V17.4C45.65 12.1 41.3 8 36 8H30.5V5.5C30.5 5.15 30.3 4.8 29.95 4.6C29.6 4.45 29.2 4.45 28.9 4.65L20.9 10.15C20.65 10.35 20.45 10.65 20.45 10.95C20.45 11.25 20.6 11.6 20.9 11.75L28.9 17.25C29.2 17.45 29.6 17.5 29.95 17.3C30.3 17.15 30.5 16.8 30.5 16.4V13.9H40C42.05 14 43.75 15.55 44 17.6ZM29.5 12C28.95 12 28.5 12.45 28.5 13V14.6L23.25 11L28.5 7.4V9C28.5 9.55 28.95 10 29.5 10H36C38.1 10 40.05 10.85 41.5 12.2C41 12.05 40.5 12 40 12H29.5Z" fill="url(#paint0_linear_62_1307)"/>
<defs>
<linearGradient id="paint0_linear_62_1307" x1="25.5" y1="2.5" x2="25.5" y2="47.5" gradientUnits="userSpaceOnUse">
<stop offset="0.557292" stop-color="#131A29"/>
<stop offset="1" stop-color="#B5179E"/>
</linearGradient>
</defs>
</svg>
