<svg width="51" height="50" viewBox="0 0 51 50" fill="none" xmlns="http://www.w3.org/2000/svg">
<path d="M24.7188 6.25H20.0312C19.5625 6.25 19.25 6.5625 19.25 7.03125C19.25 7.5 19.5625 7.8125 20.0312 7.8125H24.7188C25.1875 7.8125 25.5 7.5 25.5 7.03125C25.5 6.5625 25.1875 6.25 24.7188 6.25Z" fill="url(#paint0_linear_62_1311)"/>
<path d="M17.6875 25.7812C17.6875 25.3125 17.375 25 16.9062 25H15.3438C14.875 25 14.5625 25.3125 14.5625 25.7812C14.5625 26.25 14.875 26.5625 15.3438 26.5625H16.9062C17.375 26.5625 17.6875 26.25 17.6875 25.7812Z" fill="url(#paint1_linear_62_1311)"/>
<path d="M16.9062 23.4375H20.0312C20.5 23.4375 20.8125 23.125 20.8125 22.6562C20.8125 22.1875 20.5 21.875 20.0312 21.875H16.9062C16.4375 21.875 16.125 22.1875 16.125 22.6562C16.125 23.125 16.4375 23.4375 16.9062 23.4375Z" fill="url(#paint2_linear_62_1311)"/>
<path d="M14.0937 6.25H13.4688C13.3125 6.25 13.3125 6.40625 13.1563 6.40625C13 6.5625 13 6.875 13 7.03125C13 7.1875 13 7.5 13.1563 7.5C13.1563 7.5 13.3125 7.65625 13.4688 7.65625H14.0937C14.25 7.65625 14.25 7.5 14.4062 7.5C14.5625 7.5 14.5625 7.34375 14.5625 7.1875V6.875C14.5625 6.71875 14.4063 6.40625 14.25 6.25C14.25 6.40625 14.25 6.40625 14.0937 6.25Z" fill="url(#paint3_linear_62_1311)"/>
<path d="M13.1563 28.2813C13 28.4375 13 28.75 13 28.9062V29.2188C13 29.375 13.1563 29.375 13.1563 29.5312C13.1563 29.5312 13.3125 29.6875 13.4688 29.6875H14.0937C14.25 29.6875 14.25 29.5312 14.4062 29.5312C14.5625 29.5312 14.5625 29.375 14.5625 29.2188V28.9062C14.5625 28.75 14.4063 28.4375 14.25 28.2813C14.0938 28.125 13.4688 28.125 13.1563 28.2813Z" fill="url(#paint4_linear_62_1311)"/>
<path d="M19.4063 25.1563C19.25 25.3125 19.25 25.625 19.25 25.7812V26.0938C19.25 26.25 19.4063 26.25 19.4063 26.4062C19.4063 26.4062 19.5625 26.5625 19.7188 26.5625H20.3437C20.5 26.5625 20.5 26.4062 20.6562 26.4062C20.8125 26.4062 20.8125 26.25 20.8125 26.0938V25.7812C20.8125 25.625 20.6563 25.3125 20.5 25.1563C20.3438 25 19.7188 25 19.4063 25.1563Z" fill="url(#paint5_linear_62_1311)"/>
<path d="M13.1562 23.125C13.1562 23.125 13.3125 23.2812 13.4687 23.2812H14.0937C14.25 23.2812 14.25 23.125 14.4062 23.125C14.5625 23.125 14.5625 22.9688 14.5625 22.8125V22.1875C14.5625 22.0312 14.4062 22.0312 14.4062 21.875C14.0937 21.5625 13.625 21.5625 13.3125 21.875C13.1562 21.875 13.1562 22.0312 13.1562 22.1875V23.125Z" fill="url(#paint6_linear_62_1311)"/>
<path d="M20.0312 43.75H24.7188C25.1875 43.75 25.5 43.4375 25.5 42.9688V41.4062C25.5 40.9375 25.1875 40.625 24.7188 40.625H20.0312C19.5625 40.625 19.25 40.9375 19.25 41.4062V42.9688C19.25 43.4375 19.5625 43.75 20.0312 43.75Z" fill="url(#paint7_linear_62_1311)"/>
<path d="M40.3438 17.8125C39.875 17.5 39.4062 17.1875 38.7812 17.1875H34.875V7.03125C34.875 4.84375 33.1562 3.125 30.9688 3.125H13.7812C11.5938 3.125 9.875 4.84375 9.875 7.03125V42.9688C9.875 45.1562 11.5938 46.875 13.7812 46.875H30.9688C33.1562 46.875 34.875 45.1562 34.875 42.9688V29.6875H38.7812C40.0312 29.6875 41.125 28.5938 41.125 27.3438V19.5312C41.125 18.9062 40.8125 18.2812 40.3438 17.8125ZM37.375 18.75L31.75 21.7188L26.125 18.75H37.375ZM11.4375 7.03125C11.4375 5.78125 12.5312 4.6875 13.7812 4.6875H30.9688C32.2188 4.6875 33.3125 5.78125 33.3125 7.03125V9.375H11.4375V7.03125ZM33.3125 42.9688C33.3125 44.2188 32.2188 45.3125 30.9688 45.3125H13.7812C12.5312 45.3125 11.4375 44.2188 11.4375 42.9688V39.0625H33.3125V42.9688ZM33.3125 37.5H11.4375V10.9375H33.3125V17.1875H24.7188C24.25 17.1875 23.625 17.3438 23.3125 17.6562L23.1562 17.8125C22.6875 18.2812 22.375 18.9062 22.375 19.5312V27.3438C22.375 27.6562 22.375 27.8125 22.5313 28.125H16.9062C16.4375 28.125 16.125 28.4375 16.125 28.9062C16.125 29.375 16.4375 29.6875 16.9062 29.6875H33.3125V37.5ZM39.5625 27.3438C39.5625 27.8125 39.25 28.125 38.7812 28.125H24.7188C24.25 28.125 23.9375 27.8125 23.9375 27.3438V19.375L31.2813 23.2812C31.4375 23.2812 31.5938 23.4375 31.5938 23.4375C31.5938 23.4375 31.9062 23.4375 31.9062 23.2812L39.25 19.375V27.3438H39.5625Z" fill="url(#paint8_linear_62_1311)"/>
<defs>
<linearGradient id="paint0_linear_62_1311" x1="7.79219" y1="7.03125" x2="44.5141" y2="7.03125" gradientUnits="userSpaceOnUse">
<stop stop-color="#2B2E81"/>
<stop offset="1" stop-color="#BE4F9C"/>
</linearGradient>
<linearGradient id="paint1_linear_62_1311" x1="7.79219" y1="25.7812" x2="44.5141" y2="25.7812" gradientUnits="userSpaceOnUse">
<stop stop-color="#2B2E81"/>
<stop offset="1" stop-color="#BE4F9C"/>
</linearGradient>
<linearGradient id="paint2_linear_62_1311" x1="7.79219" y1="22.6562" x2="44.5141" y2="22.6562" gradientUnits="userSpaceOnUse">
<stop stop-color="#2B2E81"/>
<stop offset="1" stop-color="#BE4F9C"/>
</linearGradient>
<linearGradient id="paint3_linear_62_1311" x1="13.7812" y1="6.25" x2="13.7812" y2="7.65625" gradientUnits="userSpaceOnUse">
<stop offset="0.557292" stop-color="#131A29"/>
<stop offset="1" stop-color="#B5179E"/>
</linearGradient>
<linearGradient id="paint4_linear_62_1311" x1="7.79219" y1="28.9125" x2="44.5141" y2="28.9125" gradientUnits="userSpaceOnUse">
<stop stop-color="#2B2E81"/>
<stop offset="1" stop-color="#BE4F9C"/>
</linearGradient>
<linearGradient id="paint5_linear_62_1311" x1="7.79219" y1="25.7875" x2="44.5141" y2="25.7875" gradientUnits="userSpaceOnUse">
<stop stop-color="#2B2E81"/>
<stop offset="1" stop-color="#BE4F9C"/>
</linearGradient>
<linearGradient id="paint6_linear_62_1311" x1="7.79219" y1="22.6625" x2="44.514" y2="22.6625" gradientUnits="userSpaceOnUse">
<stop stop-color="#2B2E81"/>
<stop offset="1" stop-color="#BE4F9C"/>
</linearGradient>
<linearGradient id="paint7_linear_62_1311" x1="7.79219" y1="42.1875" x2="44.5141" y2="42.1875" gradientUnits="userSpaceOnUse">
<stop stop-color="#2B2E81"/>
<stop offset="1" stop-color="#BE4F9C"/>
</linearGradient>
<linearGradient id="paint8_linear_62_1311" x1="7.79219" y1="25" x2="44.5141" y2="25" gradientUnits="userSpaceOnUse">
<stop stop-color="#2B2E81"/>
<stop offset="1" stop-color="#BE4F9C"/>
</linearGradient>
</defs>
</svg>
