<svg width="25" height="25" viewBox="0 0 25 25" fill="none" xmlns="http://www.w3.org/2000/svg">
<path d="M10.8014 14.1946L20.6025 4.39705M11.08 14.6351L13.3024 19.08C13.8395 20.1541 14.108 20.6912 14.4463 20.8352C14.7399 20.9602 15.0755 20.9376 15.3496 20.7743C15.6656 20.5862 15.8596 20.018 16.2477 18.8815L20.4468 6.58398C20.7849 5.59372 20.954 5.09859 20.8383 4.77106C20.7376 4.48611 20.5135 4.26198 20.2285 4.1613C19.901 4.04558 19.4059 4.21465 18.4156 4.55279L6.11812 8.75193C4.98163 9.14 4.41338 9.33404 4.22527 9.64995C4.06202 9.9241 4.0394 10.2597 4.16438 10.5533C4.3084 10.8916 4.84547 11.1601 5.91961 11.6972L10.3645 13.9196C10.5414 14.0081 10.6299 14.0523 10.7066 14.1115C10.7747 14.1639 10.8357 14.2249 10.8881 14.293C10.9473 14.3697 10.9915 14.4581 11.08 14.6351Z" stroke="white" stroke-width="3" stroke-linecap="round" stroke-linejoin="round"/>
</svg>
