<svg width="24" height="24" viewBox="0 0 24 24" fill="none" xmlns="http://www.w3.org/2000/svg">
<path opacity="0.1" fill-rule="evenodd" clip-rule="evenodd" d="M0 12C0 5.37258 5.37258 0 12 0C18.6274 0 24 5.37258 24 12C24 18.6274 18.6274 24 12 24C5.37258 24 0 18.6274 0 12Z" fill="white"/>
<path fill-rule="evenodd" clip-rule="evenodd" d="M12.0007 5.59961C10.2625 5.59961 10.0444 5.60721 9.36174 5.63828C8.6804 5.66948 8.21533 5.77734 7.80839 5.93561C7.38745 6.09908 7.03038 6.31775 6.67464 6.67362C6.31864 7.02936 6.09997 7.38643 5.93597 7.80723C5.7773 8.2143 5.6693 8.67951 5.63863 9.36058C5.6081 10.0433 5.6001 10.2615 5.6001 11.9997C5.6001 13.7378 5.60783 13.9553 5.63876 14.638C5.6701 15.3193 5.77797 15.7844 5.9361 16.1913C6.0997 16.6123 6.31837 16.9693 6.67424 17.3251C7.02985 17.6811 7.38692 17.9003 7.80759 18.0637C8.21479 18.222 8.68 18.3299 9.3612 18.3611C10.0439 18.3921 10.2619 18.3997 11.9999 18.3997C13.7382 18.3997 13.9557 18.3921 14.6383 18.3611C15.3197 18.3299 15.7853 18.222 16.1925 18.0637C16.6133 17.9003 16.9698 17.6811 17.3254 17.3251C17.6814 16.9693 17.9001 16.6123 18.0641 16.1915C18.2214 15.7844 18.3294 15.3192 18.3614 14.6381C18.3921 13.9554 18.4001 13.7378 18.4001 11.9997C18.4001 10.2615 18.3921 10.0434 18.3614 9.36071C18.3294 8.67937 18.2214 8.2143 18.0641 7.80737C17.9001 7.38643 17.6814 7.02936 17.3254 6.67362C16.9694 6.31762 16.6134 6.09895 16.1921 5.93561C15.7841 5.77734 15.3187 5.66948 14.6374 5.63828C13.9547 5.60721 13.7374 5.59961 11.9987 5.59961H12.0007ZM11.4265 6.75294C11.5969 6.75267 11.7871 6.75294 12.0007 6.75294C13.7095 6.75294 13.912 6.75907 14.5868 6.78974C15.2108 6.81827 15.5495 6.92254 15.7751 7.01014C16.0738 7.12614 16.2867 7.26481 16.5106 7.48881C16.7346 7.71281 16.8733 7.92615 16.9895 8.22482C17.0771 8.45015 17.1815 8.78882 17.2099 9.41283C17.2406 10.0875 17.2473 10.2902 17.2473 11.9982C17.2473 13.7062 17.2406 13.9089 17.2099 14.5836C17.1814 15.2076 17.0771 15.5462 16.9895 15.7716C16.8735 16.0702 16.7346 16.2829 16.5106 16.5068C16.2866 16.7308 16.0739 16.8694 15.7751 16.9854C15.5498 17.0734 15.2108 17.1774 14.5868 17.206C13.9122 17.2366 13.7095 17.2433 12.0007 17.2433C10.2917 17.2433 10.0892 17.2366 9.41451 17.206C8.7905 17.1772 8.45183 17.0729 8.2261 16.9853C7.92743 16.8693 7.71409 16.7306 7.49009 16.5066C7.26609 16.2826 7.12742 16.0698 7.01115 15.771C6.92355 15.5457 6.81915 15.207 6.79075 14.583C6.76008 13.9083 6.75395 13.7057 6.75395 11.9966C6.75395 10.2875 6.76008 10.0859 6.79075 9.41123C6.81928 8.78722 6.92355 8.44855 7.01115 8.22295C7.12715 7.92428 7.26609 7.71095 7.49009 7.48694C7.71409 7.26294 7.92743 7.12427 8.2261 7.00801C8.4517 6.92001 8.7905 6.816 9.41451 6.78734C10.0049 6.76067 10.2337 6.75267 11.4265 6.75134V6.75294ZM15.417 7.81562C14.993 7.81562 14.649 8.15922 14.649 8.58336C14.649 9.00736 14.993 9.35137 15.417 9.35137C15.841 9.35137 16.185 9.00736 16.185 8.58336C16.185 8.15935 15.841 7.81562 15.417 7.81562ZM12.0007 8.71296C10.1856 8.71296 8.71401 10.1846 8.71401 11.9997C8.71401 13.8147 10.1856 15.2857 12.0007 15.2857C13.8158 15.2857 15.2869 13.8147 15.2869 11.9997C15.2869 10.1846 13.8158 8.71296 12.0007 8.71296ZM12.0007 9.8663C13.1788 9.8663 14.134 10.8214 14.134 11.9997C14.134 13.1778 13.1788 14.133 12.0007 14.133C10.8224 14.133 9.86733 13.1778 9.86733 11.9997C9.86733 10.8214 10.8224 9.8663 12.0007 9.8663Z" fill="white"/>
</svg>
