<svg width="24" height="24" viewBox="0 0 24 24" fill="none" xmlns="http://www.w3.org/2000/svg">
<path opacity="0.4" d="M9.42001 2.16043L3.92001 4.22043C2.87001 4.61043 2.01001 5.86042 2.01001 6.98042V15.0804C2.01001 15.8904 2.54002 16.9604 3.19002 17.4404L8.69002 21.5504C9.66002 22.2804 11.25 22.2804 12.22 21.5504L17.72 17.4404C18.37 16.9504 18.9 15.8904 18.9 15.0804V6.98042C18.9 5.86042 18.04 4.61043 16.99 4.22043L11.49 2.16043C10.92 1.95043 9.99001 1.95043 9.42001 2.16043Z" fill="white"/>
<path d="M19.26 6.75977H12.41C12.21 6.75977 12.02 6.76978 11.84 6.76978C10.12 6.86978 9.66003 7.49978 9.66003 9.45978V9.84978C9.66003 10.264 9.99582 10.5998 10.41 10.5998H21.25C21.6642 10.5998 22 10.264 22 9.84978V9.45978C22 7.29978 21.45 6.75977 19.26 6.75977Z" fill="white"/>
<path d="M10.42 11.7002C10.0058 11.7002 9.67004 12.036 9.67004 12.4502V14.5402C9.67004 16.7002 10.22 17.2502 12.41 17.2502H19.26C21.41 17.2502 21.98 16.7302 22 14.6602V12.4502C22 12.036 21.6643 11.7002 21.25 11.7002H10.42ZM13.2701 15.4702H12.0201C11.7201 15.4702 11.48 15.2302 11.48 14.9302C11.48 14.6302 11.7201 14.3902 12.0201 14.3902H13.2701C13.5701 14.3902 13.81 14.6302 13.81 14.9302C13.81 15.2302 13.5701 15.4702 13.2701 15.4702ZM17.3201 15.4702H14.83C14.53 15.4702 14.29 15.2302 14.29 14.9302C14.29 14.6302 14.53 14.3902 14.83 14.3902H17.3201C17.6201 14.3902 17.86 14.6302 17.86 14.9302C17.87 15.2302 17.6201 15.4702 17.3201 15.4702Z" fill="white"/>
</svg>
