<svg width="24" height="24" viewBox="0 0 24 24" fill="none" xmlns="http://www.w3.org/2000/svg">
<path opacity="0.4" d="M17.53 7.77C17.46 7.76 17.39 7.76 17.32 7.77C15.77 7.72 14.54 6.45 14.54 4.89C14.54 3.3 15.83 2 17.43 2C19.02 2 20.32 3.29 20.32 4.89C20.31 6.45 19.08 7.72 17.53 7.77Z" fill="#292D32"/>
<path opacity="0.4" d="M20.79 14.7004C19.67 15.4504 18.1 15.7304 16.65 15.5404C17.03 14.7204 17.23 13.8104 17.24 12.8504C17.24 11.8504 17.02 10.9004 16.6 10.0704C18.08 9.8704 19.65 10.1504 20.78 10.9004C22.36 11.9404 22.36 13.6504 20.79 14.7004Z" fill="#292D32"/>
<path opacity="0.4" d="M6.44002 7.77C6.51002 7.76 6.58002 7.76 6.65002 7.77C8.20002 7.72 9.43002 6.45 9.43002 4.89C9.43002 3.3 8.14002 2 6.54002 2C4.95002 2 3.65002 3.29 3.65002 4.89C3.66002 6.45 4.89002 7.72 6.44002 7.77Z" fill="#292D32"/>
<path opacity="0.4" d="M6.54999 12.8496C6.54999 13.8196 6.75999 14.7396 7.13999 15.5696C5.72999 15.7196 4.26 15.4196 3.18 14.7096C1.6 13.6596 1.6 11.9496 3.18 10.8996C4.25 10.1796 5.75999 9.88962 7.18 10.0496C6.77 10.8896 6.54999 11.8396 6.54999 12.8496Z" fill="#292D32"/>
<path d="M12.12 15.87C12.04 15.86 11.9501 15.86 11.8601 15.87C10.0201 15.81 8.55005 14.3 8.55005 12.44C8.55005 10.54 10.0801 9 11.9901 9C13.8901 9 15.43 10.54 15.43 12.44C15.43 14.3 13.97 15.81 12.12 15.87Z" fill="#292D32"/>
<path d="M8.87005 17.9396C7.36005 18.9496 7.36005 20.6096 8.87005 21.6096C10.59 22.7596 13.4101 22.7596 15.1301 21.6096C16.6401 20.5996 16.6401 18.9396 15.1301 17.9396C13.4201 16.7896 10.6 16.7896 8.87005 17.9396Z" fill="#292D32"/>
</svg>
