<svg width="24" height="24" viewBox="0 0 24 24" fill="none" xmlns="http://www.w3.org/2000/svg">
<path opacity="0.4" d="M13.2402 2C13.7102 2 14.1002 2.38 14.1002 2.86V21.15C14.1002 21.62 13.7202 22.01 13.2402 22.01C7.35023 22.01 3.24023 17.9 3.24023 12.01C3.24023 6.12 7.36023 2 13.2402 2Z" fill="#292D32"/>
<path d="M20.5399 11.5402L17.6999 8.69016C17.4099 8.40016 16.9299 8.40016 16.6399 8.69016C16.3499 8.98016 16.3499 9.46016 16.6399 9.75016L18.1999 11.3102H8.62988C8.21988 11.3102 7.87988 11.6502 7.87988 12.0602C7.87988 12.4702 8.21988 12.8102 8.62988 12.8102H18.1999L16.6399 14.3702C16.3499 14.6602 16.3499 15.1402 16.6399 15.4302C16.7899 15.5802 16.9799 15.6502 17.1699 15.6502C17.3599 15.6502 17.5499 15.5802 17.6999 15.4302L20.5399 12.5802C20.8299 12.3002 20.8299 11.8302 20.5399 11.5402Z" fill="#292D32"/>
</svg>
