<svg width="51" height="50" viewBox="0 0 51 50" fill="none" xmlns="http://www.w3.org/2000/svg">
<path d="M41.0656 6.19912L23.2697 0.297037C22.5416 0.0581242 21.751 0.0956646 21.0487 0.402495C20.3465 0.709325 19.7818 1.26396 19.4624 1.96058C19.3916 1.94495 19.3249 1.91787 19.2499 1.91787H19.2468L8.82911 1.946C8.41838 1.94535 8.0116 2.02623 7.63234 2.18393C7.25309 2.34164 6.90891 2.57305 6.61974 2.86475C6.32925 3.15487 6.09914 3.49968 5.94269 3.87926C5.78625 4.25884 5.70658 4.66565 5.70828 5.0762L5.76661 24.8689C5.76826 25.1441 5.87874 25.4074 6.07391 25.6014C6.26908 25.7954 6.53309 25.9043 6.80828 25.9043H6.81453C6.95132 25.9035 7.08662 25.8758 7.21268 25.8227C7.33875 25.7695 7.45313 25.6921 7.54927 25.5948C7.64542 25.4975 7.72146 25.3822 7.77305 25.2555C7.82464 25.1288 7.85077 24.9932 7.84995 24.8564L7.79161 5.07308C7.79161 4.79391 7.89995 4.53141 8.09578 4.33558C8.19221 4.23811 8.30709 4.16083 8.43372 4.10825C8.56034 4.05567 8.69617 4.02884 8.83328 4.02933L18.7479 4.00225L18.0552 6.09183L14.0781 6.08766C13.9411 6.0878 13.8045 6.1149 13.6781 6.16743C13.5516 6.21996 13.4368 6.29688 13.34 6.3938C13.2433 6.49072 13.1666 6.60575 13.1143 6.73231C13.0621 6.85887 13.0352 6.99448 13.0354 7.13141C13.0351 7.68379 12.8159 8.21354 12.4258 8.60462C12.0357 8.9957 11.5065 9.21622 10.9541 9.21787C10.678 9.2187 10.4136 9.3291 10.2188 9.52481C10.0241 9.72052 9.91502 9.98553 9.91557 10.2616L9.92599 21.7408C9.92654 22.0167 10.0365 22.2811 10.2318 22.476C10.4271 22.6709 10.6917 22.7804 10.9677 22.7804H10.9697C11.1065 22.7801 11.2419 22.7529 11.3682 22.7003C11.4945 22.6477 11.6092 22.5707 11.7057 22.4738C11.8022 22.3769 11.8787 22.2619 11.9308 22.1354C11.9829 22.0089 12.0096 21.8734 12.0093 21.7366L11.9999 11.1689C12.7196 10.9804 13.3759 10.6034 13.9014 10.0768C14.4269 9.55026 14.8025 8.89311 14.9895 8.17308L17.3656 8.17516L13.0541 21.1762C12.9742 21.4365 12.9994 21.7177 13.1242 21.9597C13.2491 22.2016 13.4638 22.3851 13.7222 22.4707C13.9807 22.5564 14.2624 22.5374 14.507 22.4179C14.7517 22.2985 14.9398 22.0879 15.0312 21.8314L21.2979 2.93454C21.4791 2.38975 22.0687 2.096 22.6145 2.27412L40.4104 8.17725C40.5405 8.21998 40.661 8.28806 40.7647 8.37754C40.8685 8.46702 40.9535 8.57615 41.0149 8.69863C41.0762 8.82112 41.1128 8.95454 41.1224 9.09121C41.132 9.22787 41.1144 9.36509 41.0708 9.49495L37.1187 21.4106C37.0388 21.6709 37.0639 21.9521 37.1888 22.1941C37.3137 22.436 37.5283 22.6195 37.7868 22.7051C38.0453 22.7908 38.327 22.7718 38.5716 22.6523C38.8163 22.5328 39.0044 22.3223 39.0958 22.0658L43.0479 10.1502C43.3083 9.36334 43.2458 8.50533 42.8741 7.76454C42.5025 7.02375 41.852 6.46074 41.0656 6.19912Z" fill="url(#paint0_linear_62_1321)"/>
<path d="M37.3968 12.9862C37.3355 12.8638 37.2507 12.7547 37.1472 12.6652C37.0437 12.5756 36.9236 12.5074 36.7937 12.4643C36.2698 12.2895 35.8366 11.9142 35.5889 11.4207C35.3411 10.9271 35.299 10.3555 35.4718 9.83099C35.5588 9.56909 35.5382 9.28335 35.4146 9.03663C35.2909 8.7899 35.0743 8.6024 34.8124 8.51537L26.9385 5.88828C26.8086 5.84505 26.6715 5.82784 26.5349 5.83763C26.3984 5.84743 26.2651 5.88404 26.1427 5.94538C26.0204 6.00671 25.9113 6.09156 25.8217 6.19509C25.7322 6.29861 25.6639 6.41877 25.6208 6.5487C25.4465 7.07286 25.0712 7.50639 24.5774 7.75405C24.0837 8.00171 23.5118 8.04324 22.9874 7.86953C22.7253 7.78253 22.4393 7.80324 22.1924 7.92708C21.9454 8.05093 21.7578 8.26779 21.6708 8.52995L17.3833 21.4091C17.2961 21.6713 17.3167 21.9574 17.4404 22.2044C17.5642 22.4514 17.781 22.6391 18.0432 22.7263C18.3054 22.8135 18.5914 22.7929 18.8384 22.6692C19.0855 22.5454 19.2732 22.3286 19.3604 22.0664L23.3604 10.0497C24.1028 10.1001 24.8451 9.95079 25.5104 9.61743C26.1757 9.28406 26.7396 8.77874 27.1437 8.15391L33.2906 10.206C33.2415 10.9486 33.3915 11.6909 33.7252 12.3561C34.0588 13.0214 34.564 13.5856 35.1885 13.9904L32.7229 21.4102C32.6357 21.6723 32.6563 21.9584 32.78 22.2054C32.9038 22.4524 33.1206 22.6402 33.3828 22.7273C33.6449 22.8145 33.931 22.7939 34.178 22.6702C34.425 22.5464 34.6128 22.3296 34.6999 22.0674L37.4531 13.7841C37.4968 13.654 37.5143 13.5165 37.5047 13.3795C37.495 13.2426 37.4584 13.1089 37.3968 12.9862Z" fill="url(#paint1_linear_62_1321)"/>
<path d="M30.8653 13.7902C31.2275 12.6981 30.6358 11.5192 29.5437 11.157C28.4516 10.7948 27.2726 11.3865 26.9104 12.4786C26.5483 13.5707 27.14 14.7497 28.2321 15.1119C29.3242 15.4741 30.5031 14.8823 30.8653 13.7902Z" fill="url(#paint2_linear_62_1321)"/>
<path d="M34.8478 39.4456C35.4082 39.4456 35.8624 38.9793 35.8624 38.404C35.8624 37.8287 35.4082 37.3623 34.8478 37.3623C34.2875 37.3623 33.8333 37.8287 33.8333 38.404C33.8333 38.9793 34.2875 39.4456 34.8478 39.4456Z" fill="url(#paint3_linear_62_1321)"/>
<path d="M40.0833 20.6963H10.9166C8.04471 20.6963 5.70825 23.0327 5.70825 25.9046V44.6546C5.70825 47.5265 8.04471 49.863 10.9166 49.863H40.0833C42.9551 49.863 45.2916 47.5265 45.2916 44.6546V25.9046C45.2916 23.0327 42.9551 20.6963 40.0833 20.6963ZM43.2083 41.5296H34.7655C33.103 41.5296 31.7499 40.1275 31.7499 38.4046C31.7499 36.6817 33.103 35.2796 34.7655 35.2796H43.2083V41.5296ZM43.2083 44.6546C43.2083 46.3775 41.8062 47.7796 40.0833 47.7796H10.9166C9.19367 47.7796 7.79159 46.3775 7.79159 44.6546V25.9046C7.79159 24.1817 9.19367 22.7796 10.9166 22.7796H40.0833C41.8062 22.7796 43.2083 24.1817 43.2083 25.9046V33.1963H34.7655C31.9541 33.1963 29.6666 35.5327 29.6666 38.4046C29.6666 41.2765 31.953 43.613 34.7655 43.613H43.2083V44.6546Z" fill="url(#paint4_linear_62_1321)"/>
<defs>
<linearGradient id="paint0_linear_62_1321" x1="24.4573" y1="0.141602" x2="24.4573" y2="25.9043" gradientUnits="userSpaceOnUse">
<stop offset="0.557292" stop-color="#131A29"/>
<stop offset="1" stop-color="#B5179E"/>
</linearGradient>
<linearGradient id="paint1_linear_62_1321" x1="27.4187" y1="5.83496" x2="27.4187" y2="22.7805" gradientUnits="userSpaceOnUse">
<stop offset="0.557292" stop-color="#131A29"/>
<stop offset="1" stop-color="#B5179E"/>
</linearGradient>
<linearGradient id="paint2_linear_62_1321" x1="26.9104" y1="12.4786" x2="30.8653" y2="13.7902" gradientUnits="userSpaceOnUse">
<stop offset="0.557292" stop-color="#131A29"/>
<stop offset="1" stop-color="#B5179E"/>
</linearGradient>
<linearGradient id="paint3_linear_62_1321" x1="34.8478" y1="37.3623" x2="34.8478" y2="39.4456" gradientUnits="userSpaceOnUse">
<stop offset="0.557292" stop-color="#131A29"/>
<stop offset="1" stop-color="#B5179E"/>
</linearGradient>
<linearGradient id="paint4_linear_62_1321" x1="25.4999" y1="20.6963" x2="25.4999" y2="49.863" gradientUnits="userSpaceOnUse">
<stop offset="0.557292" stop-color="#131A29"/>
<stop offset="1" stop-color="#B5179E"/>
</linearGradient>
</defs>
</svg>
