<svg width="16" height="16" viewBox="0 0 16 16" fill="none" xmlns="http://www.w3.org/2000/svg">
<g id="Stockholm-icons / Navigation / Angle-double-right">
<path id="Path 94" d="M8.19526 4.47145C7.93491 4.2111 7.93491 3.78899 8.19526 3.52864C8.45561 3.26829 8.87772 3.26829 9.13807 3.52864L13.1381 7.52864C13.3905 7.78102 13.3993 8.18741 13.1581 8.45052L9.49144 12.4505C9.24264 12.7219 8.82093 12.7403 8.54952 12.4915C8.2781 12.2427 8.25977 11.821 8.50856 11.5496L11.7439 8.02009L8.19526 4.47145Z" fill="white"/>
<path id="Path 94_2" d="M3.52868 4.47145C3.26833 4.2111 3.26833 3.78899 3.52868 3.52864C3.78902 3.26829 4.21113 3.26829 4.47148 3.52864L8.47148 7.52864C8.72387 7.78102 8.7327 8.18741 8.49152 8.45052L4.82485 12.4505C4.57605 12.7219 4.15434 12.7403 3.88293 12.4915C3.61152 12.2427 3.59318 11.821 3.84198 11.5496L7.07732 8.02009L3.52868 4.47145Z" fill="white"/>
</g>
</svg>
