<svg xmlns="http://www.w3.org/2000/svg" width="24" height="24" viewBox="0 0 24 24" fill="none">
  <path opacity="0.4" d="M17 18.4302H13L8.54999 21.3902C7.88999 21.8302 7 21.3602 7 20.5602V18.4302C4 18.4302 2 16.4302 2 13.4302V7.43018C2 4.43018 4 2.43018 7 2.43018H17C20 2.43018 22 4.43018 22 7.43018V13.4302C22 16.4302 20 18.4302 17 18.4302Z" fill="#292D32"/>
  <path d="M12.0001 12.1099C11.5901 12.1099 11.2501 11.7699 11.2501 11.3599V11.1499C11.2501 9.9899 12.1 9.41989 12.42 9.19989C12.79 8.94989 12.91 8.7799 12.91 8.5199C12.91 8.0199 12.5001 7.60986 12.0001 7.60986C11.5001 7.60986 11.0901 8.0199 11.0901 8.5199C11.0901 8.9299 10.7501 9.2699 10.3401 9.2699C9.93009 9.2699 9.59009 8.9299 9.59009 8.5199C9.59009 7.1899 10.6701 6.10986 12.0001 6.10986C13.3301 6.10986 14.41 7.1899 14.41 8.5199C14.41 9.6599 13.5701 10.2299 13.2601 10.4399C12.8701 10.6999 12.7501 10.8699 12.7501 11.1499V11.3599C12.7501 11.7799 12.4101 12.1099 12.0001 12.1099Z" fill="#292D32"/>
  <path d="M12 14.6001C11.58 14.6001 11.25 14.2601 11.25 13.8501C11.25 13.4401 11.59 13.1001 12 13.1001C12.41 13.1001 12.75 13.4401 12.75 13.8501C12.75 14.2601 12.42 14.6001 12 14.6001Z" fill="#292D32"/>
</svg>