<svg xmlns="http://www.w3.org/2000/svg" width="24" height="24" viewBox="0 0 24 24" fill="none">
  <path opacity="0.4" d="M21.09 21.5C21.09 21.78 20.87 22 20.59 22H3.41003C3.13003 22 2.91003 21.78 2.91003 21.5C2.91003 17.36 6.99003 14 12 14C13.03 14 14.03 14.14 14.95 14.41C14.36 15.11 14 16.02 14 17C14 17.75 14.21 18.46 14.58 19.06C14.78 19.4 15.04 19.71 15.34 19.97C16.04 20.61 16.97 21 18 21C19.12 21 20.13 20.54 20.85 19.8C21.01 20.34 21.09 20.91 21.09 21.5Z" fill="#292D32"/>
  <path d="M21.88 16.0398C21.78 15.6498 21.62 15.2598 21.4 14.9098C21.25 14.6498 21.05 14.3998 20.83 14.1698C20.11 13.4498 19.17 13.0598 18.21 13.0098C17.12 12.9398 16.01 13.3398 15.17 14.1698C14.38 14.9598 13.98 16.0098 14 17.0598C14.01 18.0598 14.41 19.0598 15.17 19.8298C15.7 20.3598 16.35 20.7098 17.04 20.8698C17.42 20.9698 17.82 21.0098 18.22 20.9798C19.17 20.9398 20.1 20.5598 20.83 19.8298C21.86 18.7998 22.21 17.3498 21.88 16.0398ZM19.6 18.5998C19.31 18.8898 18.83 18.8898 18.54 18.5998L17.99 18.0498L17.46 18.5798C17.17 18.8698 16.69 18.8698 16.4 18.5798C16.11 18.2798 16.11 17.8098 16.4 17.5198L16.93 16.9898L16.42 16.4898C16.13 16.1898 16.13 15.7198 16.42 15.4198C16.72 15.1298 17.19 15.1298 17.49 15.4198L17.99 15.9298L18.52 15.3998C18.81 15.1098 19.28 15.1098 19.58 15.3998C19.87 15.6898 19.87 16.1698 19.58 16.4598L19.05 16.9898L19.6 17.5398C19.89 17.8298 19.89 18.3098 19.6 18.5998Z" fill="#292D32"/>
  <path d="M12 12C14.7614 12 17 9.76142 17 7C17 4.23858 14.7614 2 12 2C9.23858 2 7 4.23858 7 7C7 9.76142 9.23858 12 12 12Z" fill="#292D32"/>
</svg>