<svg width="24" height="24" viewBox="0 0 24 24" fill="none" xmlns="http://www.w3.org/2000/svg">
<circle cx="12" cy="12" r="12" fill="#14A800"/>
<path d="M12.1953 8.47145C11.9349 8.2111 11.9349 7.78899 12.1953 7.52864C12.4556 7.26829 12.8777 7.26829 13.1381 7.52864L17.1381 11.5286C17.3905 11.781 17.3993 12.1874 17.1581 12.4505L13.4914 16.4505C13.2426 16.7219 12.8209 16.7403 12.5495 16.4915C12.2781 16.2427 12.2598 15.821 12.5086 15.5496L15.7439 12.0201L12.1953 8.47145Z" fill="white"/>
<path d="M7.52843 8.47145C7.26808 8.2111 7.26808 7.78899 7.52843 7.52864C7.78878 7.26829 8.21089 7.26829 8.47124 7.52864L12.4712 11.5286C12.7236 11.781 12.7325 12.1874 12.4913 12.4505L8.82461 16.4505C8.57581 16.7219 8.1541 16.7403 7.88269 16.4915C7.61127 16.2427 7.59294 15.821 7.84173 15.5496L11.0771 12.0201L7.52843 8.47145Z" fill="white"/>
</svg>
