<svg width="24" height="24" viewBox="0 0 24 24" fill="none" xmlns="http://www.w3.org/2000/svg">
<circle cx="12" cy="12" r="12" fill="#14A800"/>
<path d="M11.8047 15.5286C12.0651 15.7889 12.0651 16.211 11.8047 16.4714C11.5444 16.7317 11.1223 16.7317 10.8619 16.4714L6.86193 12.4714C6.60954 12.219 6.60071 11.8126 6.8419 11.5495L10.5086 7.54948C10.7574 7.27806 11.1791 7.25973 11.4505 7.50852C11.7219 7.75732 11.7402 8.17903 11.4914 8.45044L8.25609 11.9799L11.8047 15.5286Z" fill="white"/>
<path d="M16.4716 15.5286C16.7319 15.7889 16.7319 16.211 16.4716 16.4714C16.2112 16.7317 15.7891 16.7317 15.5288 16.4714L11.5288 12.4714C11.2764 12.219 11.2675 11.8126 11.5087 11.5495L15.1754 7.54948C15.4242 7.27806 15.8459 7.25973 16.1173 7.50852C16.3887 7.75732 16.4071 8.17903 16.1583 8.45044L12.9229 11.9799L16.4716 15.5286Z" fill="white"/>
</svg>
