<svg width="64" height="64" viewBox="0 0 64 64" fill="none" xmlns="http://www.w3.org/2000/svg">
<circle cx="32" cy="32" r="32" fill="#14A800" fill-opacity="0.05"/>
<path opacity="0.3" fill-rule="evenodd" clip-rule="evenodd" d="M30.8905 29.9394L19.7501 40.7499L19.7501 45.9999L25.0001 45.9999L25.0001 42.4999L28.3982 42.4999L28.3982 38.9999L32.0001 38.9999L35.8228 34.8717L30.8905 29.9394Z" fill="#14A800"/>
<path fill-rule="evenodd" clip-rule="evenodd" d="M46.3988 34.1489C42.2983 38.2494 35.6501 38.2494 31.5496 34.1489C27.4491 30.0484 27.4491 23.4001 31.5496 19.2996C35.6501 15.1991 42.2983 15.1991 46.3988 19.2996C50.4993 23.4001 50.4993 30.0484 46.3988 34.1489ZM42.8184 27.0684C41.7932 28.0936 40.1312 28.0936 39.1061 27.0684C38.0809 26.0433 38.0809 24.3813 39.1061 23.3561C40.1312 22.331 41.7932 22.331 42.8184 23.3561C43.8435 24.3813 43.8435 26.0433 42.8184 27.0684Z" fill="#14A800"/>
</svg>
