<svg width="260" height="80" viewBox="0 0 260 80" fill="none" xmlns="http://www.w3.org/2000/svg">
<path d="M90.372 49.234C88.9853 49.234 87.616 49.052 86.264 48.688C84.912 48.324 83.8113 47.83 82.962 47.206L84.496 43.748C85.3973 44.32 86.3507 44.762 87.356 45.074C88.3787 45.3687 89.4013 45.516 90.424 45.516C91.464 45.516 92.2613 45.3773 92.816 45.1C93.3707 44.8053 93.648 44.398 93.648 43.878C93.648 43.41 93.3967 43.0287 92.894 42.734C92.3913 42.422 91.4467 42.1187 90.06 41.824C88.3093 41.4773 86.9487 41.0527 85.978 40.55C85.0073 40.03 84.3227 39.4233 83.924 38.73C83.5427 38.0367 83.352 37.196 83.352 36.208C83.352 35.0813 83.6727 34.0673 84.314 33.166C84.9553 32.2473 85.8567 31.5367 87.018 31.034C88.1793 30.514 89.5053 30.254 90.996 30.254C92.3307 30.254 93.622 30.4447 94.87 30.826C96.1353 31.19 97.1233 31.6753 97.834 32.282L96.326 35.74C95.5113 35.168 94.6533 34.7347 93.752 34.44C92.8507 34.128 91.9493 33.972 91.048 33.972C90.164 33.972 89.4533 34.1453 88.916 34.492C88.3787 34.8213 88.11 35.272 88.11 35.844C88.11 36.156 88.2053 36.416 88.396 36.624C88.5867 36.832 88.942 37.04 89.462 37.248C89.982 37.4387 90.762 37.6467 91.802 37.872C93.4833 38.236 94.8007 38.678 95.754 39.198C96.7247 39.7007 97.4093 40.2987 97.808 40.992C98.2067 41.668 98.406 42.4827 98.406 43.436C98.406 45.2387 97.704 46.66 96.3 47.7C94.896 48.7227 92.92 49.234 90.372 49.234ZM114.159 35.792V49H109.557V47.232C108.707 48.5493 107.451 49.208 105.787 49.208C104.105 49.208 102.849 48.74 102.017 47.804C101.202 46.868 100.795 45.438 100.795 43.514V35.792H105.501V43.644C105.501 44.944 106.064 45.594 107.191 45.594C107.849 45.594 108.378 45.36 108.777 44.892C109.193 44.424 109.401 43.8 109.401 43.02V35.792H114.159ZM125.68 35.428C126.807 35.428 127.812 35.7227 128.696 36.312C129.58 36.9013 130.274 37.7247 130.776 38.782C131.279 39.8393 131.53 41.0527 131.53 42.422C131.53 43.774 131.279 44.97 130.776 46.01C130.291 47.0327 129.606 47.8213 128.722 48.376C127.838 48.9307 126.824 49.208 125.68 49.208C124.814 49.208 124.025 49.0433 123.314 48.714C122.604 48.3673 122.058 47.8907 121.676 47.284V54.616H116.97V39.588C116.97 38.1667 116.901 36.9013 116.762 35.792H121.182L121.442 37.846C121.772 37.118 122.318 36.5373 123.08 36.104C123.843 35.6533 124.71 35.428 125.68 35.428ZM124.25 45.698C125.1 45.698 125.741 45.4207 126.174 44.866C126.608 44.3113 126.824 43.4967 126.824 42.422C126.824 41.33 126.599 40.4893 126.148 39.9C125.715 39.2933 125.082 38.99 124.25 38.99C123.401 38.99 122.751 39.276 122.3 39.848C121.85 40.42 121.624 41.2607 121.624 42.37C121.624 43.4447 121.85 44.268 122.3 44.84C122.751 45.412 123.401 45.698 124.25 45.698ZM142.438 35.428C143.565 35.428 144.57 35.7227 145.454 36.312C146.338 36.9013 147.032 37.7247 147.534 38.782C148.037 39.8393 148.288 41.0527 148.288 42.422C148.288 43.774 148.037 44.97 147.534 46.01C147.049 47.0327 146.364 47.8213 145.48 48.376C144.596 48.9307 143.582 49.208 142.438 49.208C141.572 49.208 140.783 49.0433 140.072 48.714C139.362 48.3673 138.816 47.8907 138.434 47.284V54.616H133.728V39.588C133.728 38.1667 133.659 36.9013 133.52 35.792H137.94L138.2 37.846C138.53 37.118 139.076 36.5373 139.838 36.104C140.601 35.6533 141.468 35.428 142.438 35.428ZM141.008 45.698C141.858 45.698 142.499 45.4207 142.932 44.866C143.366 44.3113 143.582 43.4967 143.582 42.422C143.582 41.33 143.357 40.4893 142.906 39.9C142.473 39.2933 141.84 38.99 141.008 38.99C140.159 38.99 139.509 39.276 139.058 39.848C138.608 40.42 138.382 41.2607 138.382 42.37C138.382 43.4447 138.608 44.268 139.058 44.84C139.509 45.412 140.159 45.698 141.008 45.698ZM157.142 49.208C155.669 49.208 154.386 48.9307 153.294 48.376C152.202 47.8213 151.361 47.024 150.772 45.984C150.183 44.944 149.888 43.722 149.888 42.318C149.888 40.914 150.183 39.692 150.772 38.652C151.361 37.612 152.202 36.8147 153.294 36.26C154.386 35.7053 155.669 35.428 157.142 35.428C158.598 35.428 159.863 35.714 160.938 36.286C162.03 36.8407 162.871 37.638 163.46 38.678C164.049 39.7007 164.344 40.914 164.344 42.318C164.344 43.722 164.049 44.944 163.46 45.984C162.871 47.0067 162.03 47.804 160.938 48.376C159.863 48.9307 158.598 49.208 157.142 49.208ZM157.142 45.698C158.841 45.698 159.69 44.5713 159.69 42.318C159.69 41.174 159.473 40.3333 159.04 39.796C158.624 39.2413 157.991 38.964 157.142 38.964C156.275 38.964 155.625 39.2413 155.192 39.796C154.759 40.3333 154.542 41.174 154.542 42.318C154.542 43.4793 154.759 44.3373 155.192 44.892C155.625 45.4293 156.275 45.698 157.142 45.698ZM174.904 35.48C175.546 35.48 176.04 35.5753 176.386 35.766V40.056C175.641 39.7093 174.922 39.536 174.228 39.536C172.252 39.536 171.264 40.4807 171.264 42.37V49H166.558V39.588C166.558 38.1667 166.489 36.9013 166.35 35.792H170.77L171.056 38.002C171.368 37.1873 171.871 36.5633 172.564 36.13C173.258 35.6967 174.038 35.48 174.904 35.48ZM186.927 45.412C187.239 45.412 187.655 45.36 188.175 45.256V48.818C187.533 49.078 186.719 49.208 185.731 49.208C183.945 49.208 182.585 48.7053 181.649 47.7C180.73 46.6947 180.271 45.2993 180.271 43.514V39.25H177.801V35.792H180.271V32.802L184.977 31.294V35.792H188.149V39.25H184.977V43.514C184.977 44.138 185.159 44.6147 185.523 44.944C185.904 45.256 186.372 45.412 186.927 45.412ZM204.452 49.234C203.065 49.234 201.696 49.052 200.344 48.688C198.992 48.324 197.891 47.83 197.042 47.206L198.576 43.748C199.477 44.32 200.431 44.762 201.436 45.074C202.459 45.3687 203.481 45.516 204.504 45.516C205.544 45.516 206.341 45.3773 206.896 45.1C207.451 44.8053 207.728 44.398 207.728 43.878C207.728 43.41 207.477 43.0287 206.974 42.734C206.471 42.422 205.527 42.1187 204.14 41.824C202.389 41.4773 201.029 41.0527 200.058 40.55C199.087 40.03 198.403 39.4233 198.004 38.73C197.623 38.0367 197.432 37.196 197.432 36.208C197.432 35.0813 197.753 34.0673 198.394 33.166C199.035 32.2473 199.937 31.5367 201.098 31.034C202.259 30.514 203.585 30.254 205.076 30.254C206.411 30.254 207.702 30.4447 208.95 30.826C210.215 31.19 211.203 31.6753 211.914 32.282L210.406 35.74C209.591 35.168 208.733 34.7347 207.832 34.44C206.931 34.128 206.029 33.972 205.128 33.972C204.244 33.972 203.533 34.1453 202.996 34.492C202.459 34.8213 202.19 35.272 202.19 35.844C202.19 36.156 202.285 36.416 202.476 36.624C202.667 36.832 203.022 37.04 203.542 37.248C204.062 37.4387 204.842 37.6467 205.882 37.872C207.563 38.236 208.881 38.678 209.834 39.198C210.805 39.7007 211.489 40.2987 211.888 40.992C212.287 41.668 212.486 42.4827 212.486 43.436C212.486 45.2387 211.784 46.66 210.38 47.7C208.976 48.7227 207 49.234 204.452 49.234ZM223.793 35.428C225.353 35.428 226.514 35.9047 227.277 36.858C228.057 37.794 228.447 39.2153 228.447 41.122V49H223.741V41.33C223.741 40.5153 223.602 39.9347 223.325 39.588C223.047 39.224 222.614 39.042 222.025 39.042C221.314 39.042 220.742 39.2847 220.309 39.77C219.875 40.238 219.659 40.862 219.659 41.642V49H214.953V29.864H219.659V37.404C220.681 36.0867 222.059 35.428 223.793 35.428ZM243.371 42.864H235.077C235.164 43.8867 235.459 44.6233 235.961 45.074C236.464 45.5247 237.201 45.75 238.171 45.75C238.83 45.75 239.489 45.646 240.147 45.438C240.806 45.2127 241.404 44.9093 241.941 44.528L243.137 47.648C242.479 48.1333 241.681 48.5147 240.745 48.792C239.809 49.0693 238.873 49.208 237.937 49.208C236.429 49.208 235.121 48.9307 234.011 48.376C232.902 47.8213 232.053 47.0327 231.463 46.01C230.874 44.97 230.579 43.748 230.579 42.344C230.579 41.0093 230.857 39.822 231.411 38.782C231.983 37.7247 232.763 36.9013 233.751 36.312C234.757 35.7227 235.901 35.428 237.183 35.428C238.431 35.428 239.523 35.7053 240.459 36.26C241.395 36.8147 242.115 37.612 242.617 38.652C243.12 39.6747 243.371 40.8707 243.371 42.24V42.864ZM237.313 38.652C236.152 38.652 235.424 39.328 235.129 40.68H239.341C239.168 39.328 238.492 38.652 237.313 38.652ZM245.549 29.864H250.255V49H245.549V29.864ZM253.064 29.864H257.77V49H253.064V29.864Z" fill="#21334F"/>
<path d="M55.5597 13.6467C59.5644 15.9038 65.4548 21.041 65.4548 21.041C65.4548 21.041 57.5662 19.4584 53.5341 19.1952C49.3914 18.9248 45.305 19.4259 41.8441 20.2719C34.8663 21.9776 28.2314 25.6555 28.2314 25.6555L23.2924 17.3315C23.2924 17.3315 36.8445 10.6676 44.9973 11.043L45.0131 11.0437C49.6979 11.2594 51.4684 11.3409 55.5597 13.6467Z" fill="#21334F"/>
<circle cx="42.0749" cy="8.04366" r="4.30684" fill="#21334F"/>
<path d="M63.4893 51.7926C61.7691 56.0555 57.4368 62.5608 57.4368 62.5608C57.4368 62.5608 57.9859 54.5338 57.7255 50.5015C57.4579 46.3586 56.4325 42.3713 55.1461 39.0489C52.5523 32.3502 48.0474 26.2467 48.0474 26.2467L55.6628 20.2727C55.6628 20.2727 64.0232 32.8493 64.7053 40.9822L64.7066 40.9979C65.0986 45.6713 65.2467 47.4374 63.4893 51.7926Z" fill="#14A800"/>
<circle cx="67.3017" cy="37.6963" r="4.30684" transform="rotate(82.5698 67.3017 37.6963)" fill="#14A800"/>
<path d="M27.2679 63.2033C22.8009 62.1179 15.7373 58.7722 15.7373 58.7722C15.7373 58.7722 23.7593 58.1543 27.7115 57.3133C31.7721 56.4492 35.5691 54.8577 38.6705 53.1042C44.9234 49.5686 50.311 44.228 50.311 44.228L57.3239 50.8991C57.3239 50.8991 46.0891 60.991 38.1405 62.8425L38.1251 62.8461C33.5576 63.91 31.8314 64.3121 27.2679 63.2033Z" fill="#21334F"/>
<circle cx="41.7672" cy="64.9361" r="4.30684" transform="rotate(164.252 41.7672 64.9361)" fill="#21334F"/>
<path d="M16.3931 25.5436C16.9475 20.9802 19.4424 13.5732 19.4424 13.5732C19.4424 13.5732 20.9961 21.4676 22.2944 25.294C23.6284 29.2253 25.6539 32.8097 27.7588 35.6842C32.0027 41.4798 37.9378 46.2044 37.9378 46.2044L32.1345 53.9507C32.1345 53.9507 20.7956 43.976 18.0254 36.299L18.0201 36.2842C16.4282 31.8728 15.8266 30.2057 16.3931 25.5436Z" fill="#14A800"/>
<circle cx="16.3713" cy="40.1462" r="4.30684" transform="rotate(-112.478 16.3713 40.1462)" fill="#14A800"/>
</svg>
