<svg width="51" height="50" viewBox="0 0 51 50" fill="none" xmlns="http://www.w3.org/2000/svg">
<g id="money-withdrawal">
<path id="Icon" d="M13 36.458C13.8705 35.8041 14.9525 35.4167 16.125 35.4167C19.0015 35.4167 21.3333 37.7485 21.3333 40.625C21.3333 41.7975 20.9459 42.8795 20.292 43.75M38 36.458C37.1295 35.8041 36.0475 35.4167 34.875 35.4167C31.9985 35.4167 29.6667 37.7485 29.6667 40.625C29.6667 41.7975 30.0541 42.8795 30.708 43.75M37.9999 20.8332C40.059 20.8316 41.1383 20.8055 41.975 20.3792C42.759 19.9797 43.3964 19.3423 43.7959 18.5583C44.25 17.667 44.25 16.5002 44.25 14.1667V12.9167C44.25 10.5831 44.25 9.41634 43.7959 8.52504C43.3964 7.74103 42.759 7.10361 41.975 6.70414C41.0837 6.25 39.9169 6.25 37.5833 6.25H13.4167C11.0831 6.25 9.91634 6.25 9.02504 6.70414C8.24103 7.10361 7.60361 7.74103 7.20414 8.52504C6.75 9.41634 6.75 10.5831 6.75 12.9167V14.1667C6.75 16.5002 6.75 17.667 7.20414 18.5583C7.60361 19.3423 8.24103 19.9797 9.02504 20.3792C9.86165 20.8055 10.941 20.8316 13.0001 20.8332M37.9999 20.8332C38 20.9679 38 21.1067 38 21.25V37.0833C38 39.4169 38 40.5837 37.5459 41.475C37.1464 42.259 36.509 42.8964 35.725 43.2959C34.8337 43.75 33.6669 43.75 31.3333 43.75H19.6667C17.3331 43.75 16.1663 43.75 15.275 43.2959C14.491 42.8964 13.8536 42.259 13.4541 41.475C13 40.5837 13 39.4169 13 37.0833V21.25C13 21.1067 13 20.9679 13.0001 20.8332M37.9999 20.8332C37.9983 18.7742 37.9721 17.695 37.5459 16.8584C37.1464 16.0744 36.509 15.4369 35.725 15.0375C34.8337 14.5833 33.6669 14.5833 31.3333 14.5833H19.6667C17.3331 14.5833 16.1663 14.5833 15.275 15.0375C14.491 15.4369 13.8536 16.0744 13.4541 16.8584C13.0279 17.695 13.0017 18.7742 13.0001 20.8332M29.6667 25C29.6667 27.3012 27.8012 29.1667 25.5 29.1667C23.1988 29.1667 21.3333 27.3012 21.3333 25C21.3333 22.6988 23.1988 20.8333 25.5 20.8333C27.8012 20.8333 29.6667 22.6988 29.6667 25Z" stroke="url(#paint0_linear_54_794)" stroke-width="2" stroke-linecap="round" stroke-linejoin="round"/>
</g>
<defs>
<linearGradient id="paint0_linear_54_794" x1="25.5" y1="6.25" x2="25.5" y2="43.75" gradientUnits="userSpaceOnUse">
<stop offset="0.557292" stop-color="#131A29"/>
<stop offset="1" stop-color="#B5179E"/>
</linearGradient>
</defs>
</svg>
