<svg width="69" height="26" viewBox="0 0 69 26" fill="none" xmlns="http://www.w3.org/2000/svg">
<path d="M8.84538 25.48C7.49071 25.48 6.33338 25.2667 5.37338 24.84C4.41338 24.4027 3.61871 23.8213 2.98938 23.096L0.957376 25.32H0.781376V18.488H0.973376C1.18671 19.4267 1.49071 20.3067 1.88538 21.128C2.28004 21.9387 2.78138 22.6533 3.38938 23.272C4.00804 23.8907 4.74404 24.376 5.59738 24.728C6.46138 25.08 7.46938 25.256 8.62138 25.256C9.72004 25.256 10.6747 25.0587 11.4854 24.664C12.3067 24.2587 12.9414 23.6773 13.3894 22.92C13.848 22.152 14.0774 21.224 14.0774 20.136C14.0774 19.2187 13.8427 18.4453 13.3734 17.816C12.904 17.1867 12.2854 16.6427 11.5174 16.184C10.7494 15.7147 9.90671 15.2773 8.98938 14.872C8.07204 14.4667 7.14938 14.0453 6.22138 13.608C5.30404 13.16 4.46138 12.6373 3.69338 12.04C2.93604 11.432 2.32271 10.7013 1.85338 9.848C1.38404 8.99467 1.14938 7.95467 1.14938 6.728C1.14938 5.512 1.45871 4.45067 2.07738 3.544C2.70671 2.63733 3.53338 1.93333 4.55738 1.432C5.58138 0.930665 6.70138 0.679998 7.91738 0.679998C8.96271 0.679998 9.91204 0.845332 10.7654 1.176C11.6187 1.50667 12.36 2.01333 12.9894 2.696L14.9894 0.679998H15.1654V7.416H14.9734C14.696 5.96533 14.2427 4.76 13.6134 3.8C12.9947 2.84 12.2214 2.12533 11.2934 1.656C10.376 1.176 9.34138 0.935999 8.18938 0.935999C6.71738 0.935999 5.60271 1.30933 4.84538 2.056C4.08804 2.792 3.70938 3.76267 3.70938 4.968C3.70938 5.8 3.93871 6.504 4.39738 7.08C4.85604 7.656 5.45871 8.168 6.20538 8.616C6.96271 9.05333 7.78938 9.47467 8.68538 9.88C9.59204 10.2747 10.4987 10.712 11.4054 11.192C12.312 11.6613 13.1387 12.216 13.8854 12.856C14.632 13.496 15.2347 14.2693 15.6934 15.176C16.152 16.0827 16.3814 17.1813 16.3814 18.472C16.3814 19.88 16.0667 21.112 15.4374 22.168C14.8187 23.2133 13.9387 24.0293 12.7974 24.616C11.6667 25.192 10.3494 25.48 8.84538 25.48ZM31.4199 25.32C30.8652 25.32 30.3479 25.24 29.8679 25.08C29.3985 24.9307 29.0199 24.6587 28.7319 24.264C28.4439 23.8587 28.2999 23.2933 28.2999 22.568V15.256C28.2999 14.488 28.2359 13.72 28.1079 12.952C27.9905 12.184 27.7239 11.5493 27.3079 11.048C26.9025 10.5467 26.2732 10.296 25.4199 10.296C24.8759 10.296 24.3159 10.3653 23.7399 10.504C23.1639 10.632 22.6305 10.824 22.1399 11.08C21.6599 11.336 21.2705 11.656 20.9719 12.04C20.6732 12.4133 20.5239 12.8453 20.5239 13.336H20.3319C20.3319 12.76 20.5292 12.3013 20.9239 11.96C21.3185 11.608 21.7665 11.432 22.2679 11.432C22.7905 11.432 23.2599 11.592 23.6759 11.912C24.1025 12.232 24.3159 12.6853 24.3159 13.272C24.3159 13.944 24.0972 14.44 23.6599 14.76C23.2332 15.0693 22.7692 15.224 22.2679 15.224C21.7025 15.224 21.2332 15.064 20.8599 14.744C20.4865 14.4133 20.2999 13.944 20.2999 13.336C20.2999 12.8027 20.4599 12.3333 20.7799 11.928C21.1105 11.5227 21.5479 11.1813 22.0919 10.904C22.6465 10.616 23.2705 10.3973 23.9639 10.248C24.6572 10.0987 25.3665 10.024 26.0919 10.024C27.6065 10.024 28.7585 10.2747 29.5479 10.776C30.3479 11.2667 30.8919 11.912 31.1799 12.712C31.4679 13.512 31.6119 14.36 31.6119 15.256V23.432C31.6119 23.8053 31.6865 24.1253 31.8359 24.392C31.9959 24.6587 32.2945 24.792 32.7319 24.792C33.0732 24.792 33.4572 24.6373 33.8839 24.328C34.3105 24.008 34.6519 23.5653 34.9079 23L35.0199 23.144C34.7319 23.7947 34.2679 24.3227 33.6279 24.728C32.9879 25.1227 32.2519 25.32 31.4199 25.32ZM23.7399 25.32C22.3532 25.32 21.2439 24.968 20.4119 24.264C19.5905 23.5493 19.1799 22.584 19.1799 21.368C19.1799 19.9387 19.7825 18.84 20.9879 18.072C22.2039 17.2933 23.9479 16.904 26.2199 16.904H29.7879V17.08H26.5239C25.6172 17.08 24.8972 17.304 24.3639 17.752C23.8412 18.1893 23.4625 18.7227 23.2279 19.352C23.0039 19.9707 22.8919 20.5627 22.8919 21.128C22.8919 21.6613 22.9559 22.1947 23.0839 22.728C23.2119 23.2613 23.4305 23.7093 23.7399 24.072C24.0492 24.424 24.4705 24.6 25.0039 24.6C25.5799 24.6 26.1185 24.4133 26.6199 24.04C27.1319 23.656 27.5372 23.0693 27.8359 22.28C28.1452 21.4907 28.2999 20.4667 28.2999 19.208H28.4439C28.4439 20.4347 28.2732 21.5067 27.9319 22.424C27.6012 23.3413 27.0892 24.056 26.3959 24.568C25.7132 25.0693 24.8279 25.32 23.7399 25.32ZM52.4199 10.28V10.472H50.0679L43.9559 25.32H43.4599L37.3639 10.472H35.5079V10.28H43.6679V10.472H41.0279L45.2359 21.576L49.8119 10.472H46.8039V10.28H52.4199ZM57.9184 4.984C57.3317 4.984 56.825 4.776 56.3984 4.36C55.9824 3.93333 55.7744 3.42667 55.7744 2.84C55.7744 2.24266 55.9824 1.736 56.3984 1.32C56.825 0.903999 57.3317 0.695999 57.9184 0.695999C58.5264 0.695999 59.033 0.903999 59.4384 1.32C59.8544 1.736 60.0624 2.24266 60.0624 2.84C60.0624 3.42667 59.8544 3.93333 59.4384 4.36C59.033 4.776 58.5264 4.984 57.9184 4.984ZM59.5824 10.28V24.808H61.5824V25H54.2544V24.808H56.2544V10.472H54.2544V10.28H59.5824ZM66.2564 25.32C65.851 25.32 65.483 25.2187 65.1524 25.016C64.8217 24.824 64.555 24.5627 64.3524 24.232C64.1604 23.9013 64.0644 23.5333 64.0644 23.128C64.0644 22.7333 64.1604 22.3707 64.3524 22.04C64.555 21.6987 64.8217 21.432 65.1524 21.24C65.483 21.0373 65.851 20.936 66.2564 20.936C66.651 20.936 67.0137 21.0373 67.3444 21.24C67.6857 21.432 67.9524 21.6987 68.1444 22.04C68.347 22.3707 68.4484 22.7333 68.4484 23.128C68.4484 23.5333 68.347 23.9013 68.1444 24.232C67.9524 24.5627 67.6857 24.824 67.3444 25.016C67.0137 25.2187 66.651 25.32 66.2564 25.32Z" fill="#B5179E"/>
</svg>