<svg width="24" height="24" viewBox="0 0 24 24" fill="none" xmlns="http://www.w3.org/2000/svg">
<path d="M14.0008 7C14.0008 7.55229 14.4483 8 15.0003 8C15.5524 8 15.9999 7.55229 15.9999 7V6C15.9999 3.79086 14.2098 2 12.0016 2H6.0051C3.79692 2 2.00684 3.79086 2.00684 6L2.00684 18C2.00684 20.2091 3.79692 22 6.0051 22H12.0086C14.2168 22 16.0068 20.2091 16.0068 18V17C16.0068 16.4477 15.5593 16 15.0073 16C14.4552 16 14.0077 16.4477 14.0077 17V18C14.0077 19.1046 13.1127 20 12.0086 20H6.0051C4.90101 20 4.00597 19.1046 4.00597 18L4.00597 6C4.00597 4.89543 4.90101 4 6.0051 4H12.0016C13.1057 4 14.0008 4.89543 14.0008 6V7Z" fill="black"/>
<rect x="20" y="11" width="2" height="12" rx="1" transform="rotate(90 20 11)" fill="black"/>
<path d="M17.2929 9.70711C16.9024 9.31658 16.9024 8.68342 17.2929 8.29289C17.6834 7.90237 18.3166 7.90237 18.7071 8.29289L21.7071 11.2929C22.0976 11.6834 22.0976 12.3166 21.7071 12.7071L18.7071 15.7071C18.3166 16.0976 17.6834 16.0976 17.2929 15.7071C16.9024 15.3166 16.9024 14.6834 17.2929 14.2929L19.5858 12L17.2929 9.70711Z" fill="black"/>
</svg>
