<svg width="70" height="70" viewBox="0 0 70 70" fill="none" xmlns="http://www.w3.org/2000/svg">
<path d="M48.6147 11.9409C52.1189 13.9158 57.2729 18.4109 57.2729 18.4109C57.2729 18.4109 50.3704 17.0261 46.8423 16.7958C43.2175 16.5592 39.6418 16.9977 36.6136 17.7379C30.508 19.2304 24.7025 22.4486 24.7025 22.4486L20.3808 15.165C20.3808 15.165 32.2389 9.33419 39.3726 9.66262L39.3864 9.66326C43.4857 9.85198 45.0348 9.92331 48.6147 11.9409Z" fill="#21334F"/>
<circle cx="36.8154" cy="7.03814" r="3.76849" fill="#21334F"/>
<path d="M55.5533 45.3186C54.0482 49.0487 50.2573 54.7408 50.2573 54.7408C50.2573 54.7408 50.7378 47.7172 50.51 44.1889C50.2758 40.5639 49.3786 37.075 48.253 34.1679C45.9834 28.3066 42.0416 22.966 42.0416 22.966L48.7051 17.7387C48.7051 17.7387 56.0204 28.7432 56.6173 35.8595L56.6184 35.8733C56.9614 39.9625 57.091 41.5079 55.5533 45.3186Z" fill="#14A800"/>
<circle cx="58.8892" cy="32.9843" r="3.76849" transform="rotate(82.5698 58.8892 32.9843)" fill="#14A800"/>
<path d="M23.8593 55.3027C19.9507 54.353 13.77 51.4255 13.77 51.4255C13.77 51.4255 20.7893 50.8849 24.2475 50.149C27.8004 49.3929 31.1229 48.0004 33.8365 46.466C39.3079 43.3724 44.022 38.6994 44.022 38.6994L50.1583 44.5365C50.1583 44.5365 40.3279 53.367 33.3728 54.987L33.3594 54.9902C29.3628 55.9211 27.8524 56.2729 23.8593 55.3027Z" fill="#21334F"/>
<circle cx="36.5464" cy="56.819" r="3.76849" transform="rotate(164.252 36.5464 56.819)" fill="#21334F"/>
<path d="M14.344 22.3505C14.8292 18.3576 17.0122 11.8765 17.0122 11.8765C17.0122 11.8765 18.3717 18.784 19.5078 22.1321C20.675 25.572 22.4473 28.7084 24.289 31.2236C28.0025 36.2947 33.1957 40.4287 33.1957 40.4287L28.1178 47.2068C28.1178 47.2068 18.1963 38.4788 15.7724 31.7615L15.7677 31.7485C14.3748 27.8886 13.8484 26.4298 14.344 22.3505Z" fill="#14A800"/>
<circle cx="14.3251" cy="35.1278" r="3.76849" transform="rotate(-112.478 14.3251 35.1278)" fill="#14A800"/>
</svg>
