<svg width="24" height="24" viewBox="0 0 24 24" fill="none" xmlns="http://www.w3.org/2000/svg">
<path fill-rule="evenodd" clip-rule="evenodd" d="M6.13595 11.0857L2.60042 14.6213C2.20989 15.0118 2.20989 15.645 2.60042 16.0355L4.04999 17.4851C5.02068 16.8419 6.34138 16.948 7.19661 17.8032C8.05184 18.6585 8.15791 19.9792 7.5148 20.9499L8.96438 22.3994C9.3549 22.79 9.98807 22.79 10.3786 22.3994L13.9141 18.8639L12.4999 17.4497C12.1094 17.0592 12.1094 16.426 12.4999 16.0355C12.8904 15.645 13.5236 15.645 13.9141 16.0355L15.3283 17.4497L22.3994 10.3786C22.7899 9.9881 22.7899 9.35493 22.3994 8.96441L20.9498 7.51483C19.9791 8.15794 18.6584 8.05187 17.8032 7.19664C16.948 6.34141 16.8419 5.02071 17.485 4.05002L16.0354 2.60045C15.6449 2.20992 15.0118 2.20992 14.6212 2.60045L7.55016 9.67151L8.96438 11.0857C9.3549 11.4763 9.3549 12.1094 8.96438 12.4999C8.57385 12.8905 7.94069 12.8905 7.55016 12.4999L6.13595 11.0857ZM9.67149 14.6213C9.28096 14.2307 9.28096 13.5976 9.67149 13.207C10.062 12.8165 10.6952 12.8165 11.0857 13.207L11.7928 13.9142C12.1833 14.3047 12.1833 14.9378 11.7928 15.3284C11.4023 15.7189 10.7691 15.7189 10.3786 15.3284L9.67149 14.6213Z" fill="black"/>
</svg>
