<svg width="51" height="54" viewBox="0 0 51 54" fill="none" xmlns="http://www.w3.org/2000/svg">
<g id="Stockholm-icons / Files / Upload">
<path id="Path 57" opacity="0.3" d="M4.19971 29.0384C4.19971 27.9216 5.24961 26.8047 6.29951 26.8047C7.34941 26.8047 8.39931 27.9216 8.39931 29.0384C8.39931 30.1553 8.39931 40.207 8.39931 40.207C8.39931 42.6744 10.2795 44.6745 12.5989 44.6745H37.7965C40.1159 44.6745 41.9961 42.6744 41.9961 40.207V29.0384C41.9961 27.8048 42.9362 26.8047 44.0959 26.8047C45.2556 26.8047 46.1957 27.8048 46.1957 29.0384V40.207C46.1957 45.1417 42.4353 49.142 37.7965 49.142H12.5989C7.96016 49.142 4.19971 45.1417 4.19971 40.207C4.19971 40.207 4.19971 30.1553 4.19971 29.0384Z" fill="black"/>
<rect id="Rectangle" opacity="0.3" x="23.0979" y="4.46729" width="4.1996" height="31.2722" rx="1" fill="black"/>
<path id="Path 102" d="M25.2738 7.54564L16.1835 17.2157C15.3634 18.0881 14.0339 18.0881 13.2139 17.2157C12.3939 16.3434 12.3939 14.9291 13.2139 14.0568L23.7129 2.88813C24.5026 2.04807 25.7723 2.01255 26.6024 2.8073L37.1014 12.8591C37.9634 13.6843 38.0333 15.0967 37.2575 16.0137C36.4817 16.9306 35.154 17.005 34.292 16.1797L25.2738 7.54564Z" fill="black"/>
</g>
</svg>
