<svg width="51" height="50" viewBox="0 0 51 50" fill="none" xmlns="http://www.w3.org/2000/svg">
<g id="users">
<path id="Icon" d="M27.5833 41.6663V37.4997C27.5833 31.7467 22.9196 27.083 17.1667 27.083C11.4137 27.083 6.75 31.7467 6.75 37.4997V41.6663H27.5833ZM27.5833 41.6663H44.25V39.583C44.25 33.4465 39.5863 29.1663 33.8333 29.1663C30.8889 29.1663 28.2298 30.4694 26.3353 32.5645M23.4167 14.583C23.4167 18.0348 20.6184 20.833 17.1667 20.833C13.7149 20.833 10.9167 18.0348 10.9167 14.583C10.9167 11.1312 13.7149 8.33301 17.1667 8.33301C20.6184 8.33301 23.4167 11.1312 23.4167 14.583ZM38 18.7497C38 21.0509 36.1345 22.9163 33.8333 22.9163C31.5321 22.9163 29.6667 21.0509 29.6667 18.7497C29.6667 16.4485 31.5321 14.583 33.8333 14.583C36.1345 14.583 38 16.4485 38 18.7497Z" stroke="url(#paint0_linear_54_786)" stroke-width="2" stroke-linecap="round" stroke-linejoin="round"/>
</g>
<defs>
<linearGradient id="paint0_linear_54_786" x1="25.5" y1="8.33301" x2="25.5" y2="41.6663" gradientUnits="userSpaceOnUse">
<stop offset="0.557292" stop-color="#131A29"/>
<stop offset="1" stop-color="#B5179E"/>
</linearGradient>
</defs>
</svg>
