<svg width="50" height="50" viewBox="0 0 50 50" fill="none" xmlns="http://www.w3.org/2000/svg">
<g id="wallet-alt">
<path id="Icon" d="M14.5833 16.6663H33.75C37.2503 16.6663 39.0005 16.6663 40.3374 17.3476C41.5135 17.9468 42.4696 18.9029 43.0688 20.0789C43.75 21.4158 43.75 23.166 43.75 26.6663V31.6663C43.75 35.1667 43.75 36.9168 43.0688 38.2538C42.4696 39.4298 41.5135 40.3859 40.3374 40.9851C39.0005 41.6663 37.2503 41.6663 33.75 41.6663H16.25C12.7497 41.6663 10.9995 41.6663 9.66256 40.9851C8.48655 40.3859 7.53042 39.4298 6.93121 38.2538C6.25 36.9168 6.25 35.1667 6.25 31.6663V18.333C6.25 14.8327 6.25 13.0825 6.93121 11.7456C7.53042 10.5696 8.48655 9.61343 9.66256 9.01422C10.9995 8.33301 12.7497 8.33301 16.25 8.33301H41.6667M34.3746 29.4792H34.3933M35.3121 29.4792C35.3121 29.997 34.8924 30.4167 34.3746 30.4167C33.8568 30.4167 33.4371 29.997 33.4371 29.4792C33.4371 28.9615 33.8568 28.5417 34.3746 28.5417C34.8924 28.5417 35.3121 28.9615 35.3121 29.4792Z" stroke="url(#paint0_linear_54_810)" stroke-width="2" stroke-linecap="round" stroke-linejoin="round"/>
</g>
<defs>
<linearGradient id="paint0_linear_54_810" x1="25" y1="8.33301" x2="25" y2="41.6663" gradientUnits="userSpaceOnUse">
<stop offset="0.557292" stop-color="#131A29"/>
<stop offset="1" stop-color="#B5179E"/>
</linearGradient>
</defs>
</svg>
